<?xml version="1.0" standalone="no"?><!DOCTYPE svg PUBLIC "-//W3C//DTD SVG 1.1//EN" "http://www.w3.org/Graphics/SVG/1.1/DTD/svg11.dtd"><svg class="icon" style="" viewBox="0 0 1024 1024" version="1.1" xmlns="http://www.w3.org/2000/svg" p-id="3772" xmlns:xlink="http://www.w3.org/1999/xlink" width="48" height="48"><defs><style type="text/css"><![CDATA[

]]></style></defs><path d="M845.36553 709.182918c-21.442358-28.484751-45.435819-51.402717-74.214259-69.450768-44.529169 100.380198-143.875828 170.231079-259.141038 170.231079-115.285676 0-214.611869-69.850881-259.161504-170.231079-28.589129 18.048051-52.771901 40.966017-74.215282 69.450768-15.201214 20.113083-23.486924 60.531632-24.013927 82.141812 0.190335 5.587252 0 93.14747 0 93.14747 0 41.155329 32.806173 74.488505 73.308633 74.488505l568.144718 0c40.502459 0 73.308633-33.333176 73.308633-74.488505 0 0-0.168846-87.561241 0-93.14747C868.831988 769.71455 860.588233 729.297025 845.36553 709.182918L845.36553 709.182918zM412.474262 591.093383c-15.370059 1.686409-30.04427 3.730974-43.980677 6.15621-15.939017 4.090155-28.04166 18.807345-28.04166 36.328393 0 7.253194 2.0241 13.767562 5.502317 19.544125 38.498826 50.094932 98.587366 82.332147 166.05599 82.332147 65.781192 0 124.43608-30.550807 163.103752-78.410837 5.123694-6.325056 8.054443-14.547321 8.054443-23.466458 0-18.258852-13.008268-33.523511-30.234605-36.686551-14.294564-2.613524-29.326932-4.869914-45.435819-6.535857-20.72502-3.900843-36.285414-18.806321-36.285414-41.155329 0-20.493753 15.011902-36.138058 35.189454-38.752606 2.00261-0.358157 6.768147-0.548492 6.768147-0.548492 98.608855-7.084349 165.69681-27.387767 209.846332-66.140373 6.05081-6.514367 9.719362-15.264659 9.719362-24.942065 0-19.376303-14.484899-35.20992-32.996508-37.086663-54.416354-11.153014-95.29846-56.989969-95.29846-111.934349l0-7.822153c0-108.771309-86.148056-197.070354-192.431707-197.070354-106.304118 0-192.452173 88.299045-192.452173 197.070354l0 7.822153c0 54.94438-40.860617 100.781334-95.29846 111.934349-18.511609 1.87572-32.975019 17.71036-32.975019 37.086663 0 9.677407 3.668553 18.426675 9.698896 24.942065 44.3593 38.752606 111.427812 59.056024 210.225979 66.140373 2.930749 0 5.692652 0.190335 8.243755 0.548492 20.514219 2.993171 33.354666 17.879206 33.354666 38.752606C452.806853 573.045331 435.223383 588.30999 412.474262 591.093383L412.474262 591.093383z" p-id="3773" fill="#d4237a"></path></svg>