<?xml version="1.0" standalone="no"?><!DOCTYPE svg PUBLIC "-//W3C//DTD SVG 1.1//EN" "http://www.w3.org/Graphics/SVG/1.1/DTD/svg11.dtd"><svg class="icon" style="" viewBox="0 0 1024 1024" version="1.1" xmlns="http://www.w3.org/2000/svg" p-id="6564" xmlns:xlink="http://www.w3.org/1999/xlink" width="48" height="48"><defs><style type="text/css"><![CDATA[

]]></style></defs><path d="M571.076923 1014.153846 531.692308 836.923077 492.307692 836.923077 452.923077 1014.153846 59.076923 1014.153846 59.076923 876.307692C59.076923 789.307077 129.614769 718.769231 216.615385 718.769231L315.076923 718.769231 315.076923 659.692308 472.615385 718.769231 472.930462 718.769231 510.818462 797.538462 550.203077 718.769231 551.384615 718.769231 708.923077 659.692308 708.923077 718.769231 807.384615 718.769231C894.385231 718.769231 964.923077 789.307077 964.923077 876.307692L964.923077 1014.153846 571.076923 1014.153846ZM512 620.307692C370.609231 620.307692 256 418.107077 256 265.846154 256 113.585231 370.609231 9.846154 512 9.846154 653.390769 9.846154 768 113.585231 768 265.846154 768 418.107077 653.390769 620.307692 512 620.307692Z" p-id="6565" fill="#1296db"></path></svg>