<?xml version="1.0" standalone="no"?><!DOCTYPE svg PUBLIC "-//W3C//DTD SVG 1.1//EN" "http://www.w3.org/Graphics/SVG/1.1/DTD/svg11.dtd"><svg t="1481710509220" class="icon" style="" viewBox="0 0 1024 1024" version="1.1" xmlns="http://www.w3.org/2000/svg" p-id="1444" xmlns:xlink="http://www.w3.org/1999/xlink" width="128" height="128"><defs><style type="text/css"></style></defs><path d="M866.133333 157.866667 797.866667 85.333333c-55.466667 55.466667-226.133333 59.733333-285.866667 0-59.733333 59.733333-230.4 55.466667-285.866667 0L157.866667 157.866667c0 0 42.666667 76.8 42.666667 140.8 0 106.666667-42.666667 149.333333-42.666667 290.133333 0 260.266667 302.933333 311.466667 354.133333 349.866667 55.466667-38.4 354.133333-93.866667 354.133333-349.866667 0-140.8-42.666667-179.2-42.666667-290.133333C823.466667 234.666667 866.133333 157.866667 866.133333 157.866667zM635.733333 686.933333 512 610.133333 388.266667 682.666667l29.866667-140.8-106.666667-93.866667 145.066667-12.8L512 302.933333l59.733333 132.266667 145.066667 12.8-106.666667 93.866667L635.733333 686.933333z" p-id="1445" fill="#ffffff"></path></svg>