<?xml version="1.0" standalone="no"?><!DOCTYPE svg PUBLIC "-//W3C//DTD SVG 1.1//EN" "http://www.w3.org/Graphics/SVG/1.1/DTD/svg11.dtd"><svg class="icon" style="" viewBox="0 0 1024 1024" version="1.1" xmlns="http://www.w3.org/2000/svg" p-id="46069" xmlns:xlink="http://www.w3.org/1999/xlink" width="48" height="48"><defs><style type="text/css"><![CDATA[

]]></style></defs><path d="M82.361311 397.196301 206.983633 188.240245c6.232958-10.063193 17.121959-16.071024 28.499078-16.296151l553.12463 0c13.253862 0 24.632004 7.284917 29.850865 18.661012l124.622322 208.730928c8.036024 13.291724 5.256724 29.813003-5.256724 40.702004l0.450255 0L535.831266 842.706981c-13.066597 12.465916-34.31862 12.465916-47.38624 0l-0.411369-1.050935L86.228385 440.039062C74.325287 428.248527 73.161788 409.849482 82.361311 397.196301L82.361311 397.196301zM160.573627 396.107503 160.573627 396.107503l168.103626 0-85.046978-138.852418L160.573627 396.107503 160.573627 396.107503zM780.420891 257.254062 780.420891 257.254062l-84.85869 138.852418 168.141488 0L780.420891 257.254062 780.420891 257.254062zM846.957283 435.983699 846.957283 435.983699 673.708474 435.983699l-100.103906 273.42537L846.957283 435.983699 846.957283 435.983699zM450.634886 709.409069 450.634886 709.409069 350.117564 435.983699 177.320033 435.983699 450.634886 709.409069 450.634886 709.409069zM744.750483 239.043305 744.750483 239.043305 560.050878 239.043305l98.638531 140.993175L744.750483 239.043305 744.750483 239.043305zM464.264301 239.043305 464.264301 239.043305l-184.737468 0 86.023212 140.993175L464.264301 239.043305 464.264301 239.043305zM402.83523 396.107503 402.83523 396.107503l218.269166 0L512.251222 240.358253 402.83523 396.107503 402.83523 396.107503zM631.203404 435.983699 631.203404 435.983699 393.072889 435.983699 512.251222 760.626567 631.203404 435.983699 631.203404 435.983699z" p-id="46070" fill="#1296db"></path></svg>